<?xml version="1.0" standalone="no"?>
<!DOCTYPE svg PUBLIC "-//W3C//DTD SVG 20010904//EN"
 "http://www.w3.org/TR/2001/REC-SVG-20010904/DTD/svg10.dtd">
<svg version="1.0" xmlns="http://www.w3.org/2000/svg"
 width="850.000000pt" height="999.000000pt" viewBox="0 0 850.000000 999.000000"
 preserveAspectRatio="xMidYMid meet">

<g transform="translate(0.000000,999.000000) scale(0.100000,-0.100000)"
fill="#000000" stroke="none">
<path d="M0 4995 l0 -4995 4250 0 4250 0 0 4995 0 4995 -4250 0 -4250 0 0
-4995z m4106 2888 c-8 -33 -24 -106 -33 -147 -6 -29 12 -153 27 -191 51 -127
90 -185 205 -303 44 -46 82 -87 83 -93 2 -5 8 -9 14 -9 7 0 9 20 5 59 -7 61 1
161 12 161 4 0 21 -30 39 -67 17 -38 54 -97 80 -133 51 -67 111 -178 131 -241
22 -69 13 -164 -23 -252 l-12 -29 -60 49 c-34 27 -68 55 -76 63 -8 8 -30 26
-48 40 -260 196 -446 400 -490 535 -7 22 -16 50 -21 63 -17 43 -10 203 11 267
24 72 60 145 72 145 4 0 8 5 8 11 0 10 70 99 78 99 3 0 1 -12 -2 -27z m304
-179 c25 -3 49 -10 55 -15 5 -5 22 -9 37 -9 16 0 36 -4 46 -9 27 -15 151 -49
221 -61 72 -13 154 -5 176 16 7 8 16 14 19 14 3 0 6 -142 6 -316 l0 -315 -32
3 c-27 2 -34 8 -36 28 -2 14 -7 34 -11 45 -5 11 -15 40 -22 65 -31 106 -127
247 -215 317 -68 53 -193 113 -239 113 -12 0 -25 4 -31 10 -5 5 -52 10 -104
12 l-95 3 -9 42 c-15 72 -9 76 97 69 50 -3 112 -9 137 -12z m-640 -132 c0 -5
-6 -22 -14 -38 -46 -95 -58 -133 -76 -239 -11 -67 -10 -213 3 -284 8 -42 49
-174 56 -181 3 -3 18 -29 33 -57 63 -119 100 -160 555 -603 158 -153 208 -215
272 -338 54 -103 71 -178 70 -302 0 -74 -16 -175 -18 -120 -1 29 -34 128 -58
175 -22 42 -107 166 -131 190 -89 91 -209 196 -327 285 -38 30 -84 65 -100 79
-17 14 -48 40 -69 56 -21 17 -44 35 -50 40 -6 6 -38 32 -71 59 -125 103 -315
315 -315 352 0 7 -4 14 -8 16 -12 5 -47 85 -67 153 -30 98 -16 321 24 410 5
11 15 35 23 53 7 17 16 32 20 32 5 0 8 9 8 21 0 11 4 18 9 14 5 -3 11 4 13 14
4 25 102 140 146 172 19 13 39 29 45 36 14 14 27 17 27 5z m81 -322 c5 0 9 -6
9 -14 0 -16 50 -113 82 -159 54 -78 258 -267 453 -419 61 -47 121 -96 135
-108 14 -12 42 -36 64 -53 143 -118 312 -290 352 -360 37 -64 97 -194 98 -213
0 -12 4 -20 9 -17 6 4 12 -52 8 -84 -1 -6 3 -14 9 -18 15 -10 12 -200 -5 -285
-67 -323 -248 -553 -530 -670 -16 -7 -38 -16 -47 -21 -10 -5 -28 -8 -40 -8
-21 1 -21 2 -3 6 11 3 22 8 25 12 3 4 25 22 50 41 81 62 182 182 214 255 9 19
22 50 30 68 43 98 59 190 59 347 1 152 0 157 -35 261 -20 58 -45 121 -56 141
-11 19 -26 46 -34 59 -7 13 -15 26 -18 29 -3 3 -17 21 -30 40 -35 51 -91 111
-215 230 -308 295 -433 426 -487 510 -30 47 -60 101 -67 120 -7 19 -16 44 -21
55 -25 68 -32 99 -37 177 -3 47 -2 94 2 105 8 16 9 16 12 -4 3 -13 9 -23 14
-23z m-99 -1062 c10 -9 34 -29 55 -44 21 -16 54 -42 74 -59 19 -16 46 -37 58
-45 128 -84 400 -324 454 -400 45 -65 77 -122 77 -140 0 -11 5 -20 10 -20 6 0
10 -13 10 -29 0 -17 5 -33 10 -36 6 -4 10 -57 10 -125 0 -68 -4 -121 -10 -125
-5 -3 -10 -15 -10 -26 0 -10 -4 -27 -9 -37 -5 -9 -19 -38 -32 -65 -12 -26 -24
-46 -25 -44 -2 2 -6 45 -9 97 -3 52 -10 109 -16 125 -19 51 -60 134 -72 148
-7 6 -31 37 -55 68 -39 51 -145 154 -232 225 -19 16 -51 43 -70 61 -23 22 -38
29 -45 22 -7 -7 -6 -12 1 -17 12 -7 21 -46 30 -127 4 -35 1 -59 -10 -80 -14
-27 -16 -28 -16 -8 0 30 -71 147 -126 209 -24 27 -44 55 -44 62 0 6 -4 12 -9
12 -17 0 -82 149 -92 212 -12 67 -6 179 11 224 l11 27 27 -24 c15 -13 35 -32
44 -41z m-269 -745 c10 -42 23 -84 28 -94 5 -11 14 -28 19 -39 6 -11 10 -27
10 -35 0 -8 5 -15 10 -15 6 0 10 -9 10 -20 0 -11 5 -20 10 -20 6 0 10 -4 10
-9 0 -12 33 -52 101 -120 70 -71 83 -81 144 -110 28 -13 58 -27 67 -32 10 -5
27 -9 37 -9 11 0 22 -4 25 -8 11 -18 175 -35 270 -29 l95 6 -22 -41 c-38 -70
-60 -88 -111 -88 -50 0 -168 16 -231 32 -89 21 -185 48 -210 58 -21 9 -48 15
-136 32 -63 12 -159 -3 -179 -28 -33 -38 -35 -16 -36 316 l-1 330 36 0 36 0
18 -77z m-1805 -1241 c1 -5 11 -8 21 -5 11 3 30 -1 42 -8 26 -14 31 -16 54
-18 12 -1 15 -16 14 -73 l0 -73 -16 33 c-9 17 -20 32 -25 32 -4 0 -8 7 -8 15
0 8 -3 15 -8 15 -4 0 -18 10 -32 23 -39 35 -76 47 -145 47 -59 0 -118 -19
-136 -44 -4 -4 -10 -3 -13 3 -4 6 1 14 11 18 10 4 24 13 31 20 14 13 32 17 66
13 12 -1 16 2 11 11 -6 9 8 11 61 6 37 -3 70 -10 72 -15z m1032 10 c0 -4 10
-9 22 -9 23 -2 31 -5 109 -42 49 -24 129 -92 129 -110 0 -6 5 -11 10 -11 6 0
10 -7 10 -15 0 -8 4 -15 9 -15 4 0 20 -33 35 -74 58 -165 21 -359 -90 -469
-16 -16 -36 -33 -46 -38 -23 -12 -34 7 -16 29 107 130 60 463 -85 608 -106
106 -219 132 -380 89 -24 -6 -28 -5 -25 10 6 33 83 53 206 54 61 1 112 -3 112
-7z m790 -433 l0 -421 133 4 c135 4 211 21 250 56 16 14 17 12 17 -24 0 -21
-6 -50 -13 -63 l-12 -24 -243 2 c-134 1 -250 5 -259 8 -9 4 -13 13 -9 27 12
43 18 487 8 644 -10 161 -10 163 -38 187 l-29 25 98 0 97 0 0 -421z m803 4 c3
-230 7 -429 9 -443 3 -25 2 -25 -66 -25 l-69 0 2 404 3 403 -32 39 -31 39 90
0 89 0 5 -417z m907 367 c0 -27 -3 -50 -6 -50 -3 0 -20 10 -37 22 -29 21 -43
23 -182 23 l-150 0 -3 -174 -2 -173 160 4 c101 2 161 0 163 -6 2 -6 1 -21 -1
-34 -4 -21 -9 -23 -41 -18 -20 3 -90 6 -156 8 l-120 3 0 -195 0 -195 145 1
c126 1 151 3 192 22 26 12 49 22 52 22 10 0 7 -60 -4 -79 -9 -17 -27 -18 -261
-15 -138 3 -255 6 -259 9 -4 2 -4 24 1 47 4 24 8 194 8 378 1 360 -3 395 -50
431 -23 18 -17 19 264 19 l287 0 0 -50z m721 39 c68 -22 98 -40 127 -75 57
-69 57 -187 -1 -259 -26 -32 -120 -85 -151 -85 -20 0 -46 -11 -46 -19 0 -3 14
-22 30 -41 16 -19 30 -40 30 -47 0 -6 3 -13 8 -15 9 -4 62 -74 62 -82 0 -3 7
-14 15 -23 8 -10 15 -21 15 -25 0 -5 7 -16 15 -25 50 -58 65 -77 65 -83 0 -4
18 -26 40 -49 l40 -41 -79 0 -79 0 -37 50 c-21 28 -33 55 -29 61 4 7 3 9 -3 6
-10 -7 -63 63 -63 83 0 5 -4 10 -10 10 -5 0 -10 5 -10 10 0 6 -22 44 -50 85
-27 41 -50 77 -50 80 0 21 -34 36 -72 33 l-43 -3 2 -180 c1 -99 5 -192 9 -207
l6 -28 -71 0 -71 0 0 409 0 409 -31 31 -31 31 215 0 c128 0 228 -4 248 -11z
m828 2 c8 -1 11 -8 8 -20 -3 -14 -1 -18 9 -14 9 3 14 -2 14 -13 0 -22 23 -90
33 -100 4 -4 7 -16 7 -26 0 -10 5 -18 11 -18 8 0 10 -12 6 -35 -5 -33 6 -49
16 -22 3 7 6 5 6 -6 1 -9 10 -39 22 -65 12 -26 25 -56 29 -67 10 -24 52 -117
58 -127 2 -3 -7 -4 -20 -2 -21 4 -21 4 -3 -5 17 -8 72 -104 95 -166 9 -24 29
-71 43 -102 7 -17 6 -27 -4 -39 -13 -16 -12 -17 8 -12 14 4 28 0 37 -11 14
-16 10 -17 -59 -20 -72 -2 -74 -2 -81 23 -3 15 -4 36 -1 49 6 21 6 21 -8 3
-14 -19 -15 -19 -15 5 0 14 -4 29 -9 35 -4 5 -14 30 -21 57 -7 26 -17 50 -21
53 -5 3 -9 15 -9 27 0 13 -7 33 -16 45 -15 21 -21 22 -188 22 -188 0 -183 1
-205 -60 -17 -46 -31 -81 -42 -102 -5 -10 -9 -27 -9 -37 0 -11 -4 -23 -10 -26
-5 -3 -10 -17 -10 -31 0 -13 -4 -24 -10 -24 -5 0 -10 -9 -10 -20 0 -16 -7 -20
-30 -20 -16 0 -30 3 -30 6 0 3 11 30 25 60 14 30 25 61 25 69 0 8 4 15 9 15 5
0 11 10 13 23 2 12 9 21 15 20 7 -2 10 4 6 13 -6 15 14 63 31 75 5 4 10 18 11
31 2 14 7 33 13 44 28 53 72 151 72 161 0 7 6 10 13 7 7 -2 12 -17 11 -32 -3
-39 -3 -39 -15 -22 -9 12 -10 12 -5 -4 4 -10 -3 -43 -14 -73 -11 -30 -16 -52
-12 -49 5 3 75 6 155 7 168 1 165 0 126 87 -12 25 -24 64 -27 85 -3 28 -8 35
-14 25 -7 -9 -8 -5 -5 15 2 16 0 27 -7 27 -6 0 -23 28 -37 63 -31 76 -51 84
-68 25 -7 -24 -17 -51 -22 -60 -5 -10 -9 -25 -9 -33 0 -8 -4 -15 -10 -15 -5 0
-10 -12 -10 -26 0 -22 -2 -25 -15 -14 -20 17 -19 38 5 88 11 22 20 48 20 57 0
9 5 13 10 10 6 -3 10 3 10 13 0 11 7 33 15 48 8 16 15 36 15 44 -1 25 -26 62
-51 77 -22 12 -17 13 46 9 39 -3 76 -5 84 -5z m-5329 -76 c0 -4 -6 -5 -12 -2
-10 3 -13 -17 -12 -84 0 -49 4 -92 8 -96 5 -5 5 2 2 15 -9 29 6 29 19 0 6 -12
30 -37 55 -55 25 -18 50 -38 57 -43 7 -6 18 -10 26 -10 23 0 67 -25 67 -38 0
-7 4 -11 9 -8 27 17 181 -111 181 -149 0 -13 5 -27 10 -30 14 -8 13 -87 -1
-122 -35 -87 -51 -108 -76 -99 -13 5 -14 4 -3 -9 8 -10 9 -15 1 -15 -6 0 -20
-9 -30 -19 -26 -26 -80 -41 -168 -48 -79 -6 -124 3 -88 17 11 5 54 9 97 9 84
1 146 25 164 64 5 12 16 21 24 19 11 -3 12 0 4 8 -13 13 -6 63 7 54 5 -3 9 0
9 5 0 6 -4 11 -10 11 -5 0 -10 15 -10 33 0 41 -50 117 -77 117 -7 0 -13 5 -13
10 0 6 -7 10 -15 10 -8 0 -15 3 -15 8 0 4 -27 20 -60 37 -33 16 -60 33 -60 37
0 4 -8 8 -17 9 -11 0 -13 3 -5 6 6 2 9 9 6 14 -3 6 -11 6 -20 -2 -11 -9 -15
-8 -20 5 -3 9 -13 16 -22 16 -8 0 -35 21 -60 46 l-44 47 6 63 c4 34 3 65 -2
68 -13 8 -2 66 12 63 6 -1 10 4 9 10 -2 7 7 23 20 35 17 18 25 20 35 11 6 -6
12 -15 12 -18z m947 -134 c15 -31 31 -57 35 -59 4 -2 8 -8 8 -14 0 -6 11 -26
25 -44 14 -18 25 -38 25 -45 0 -7 2 -10 5 -7 3 2 69 -59 148 -136 149 -147
182 -194 208 -298 16 -68 7 -77 -23 -22 -31 58 -110 140 -228 238 -47 39 -93
80 -102 91 -10 11 -26 29 -36 40 -11 11 -28 36 -38 55 -10 19 -21 37 -24 40
-11 11 -48 97 -59 136 -6 23 -11 77 -10 120 l0 79 20 -59 c10 -33 31 -84 46
-115z m-136 80 c-6 -10 -12 -32 -13 -49 -1 -17 -5 -29 -9 -27 -3 3 -9 -33 -12
-78 -7 -100 2 -244 14 -225 6 8 9 2 9 -19 0 -40 60 -155 112 -217 84 -98 226
-141 338 -101 32 11 46 12 56 4 19 -16 17 -29 -4 -29 -10 0 -22 -4 -28 -10 -5
-5 -40 -10 -77 -11 -42 -1 -67 -6 -67 -13 0 -8 -2 -8 -8 0 -4 7 -34 14 -67 17
-82 8 -135 18 -135 26 0 4 -16 13 -36 20 -42 15 -154 122 -154 147 0 9 -3 14
-7 11 -13 -14 -63 157 -63 218 0 121 47 247 120 323 34 36 45 41 31 13z m-891
-608 c0 -8 14 -28 30 -45 17 -17 29 -33 26 -35 -3 -3 -16 6 -30 20 -14 15 -26
22 -26 18 0 -15 35 -49 55 -53 11 -3 0 -5 -25 -4 -62 3 -69 9 -63 59 3 23 5
47 6 54 1 16 27 4 27 -14z m88 -120 c-10 -2 -28 -2 -40 0 -13 2 -5 4 17 4 22
1 32 -1 23 -4z m2247 -425 c30 -26 32 -58 5 -83 -26 -23 -26 -57 1 -73 17 -11
23 -10 39 10 17 20 19 20 20 5 0 -9 -5 -26 -12 -37 -10 -15 -9 -23 7 -40 23
-25 12 -39 -13 -17 -20 18 -42 22 -42 8 0 -10 -56 -32 -63 -25 -2 3 -14 7 -27
9 -24 5 -49 32 -50 53 0 20 20 54 44 73 17 14 19 20 9 30 -21 22 -16 76 9 93
30 21 43 20 73 -6z m831 10 c19 -6 36 -18 38 -25 6 -15 -20 -18 -29 -3 -10 16
-57 12 -77 -7 -35 -31 -19 -65 37 -79 51 -12 82 -32 89 -58 10 -39 -11 -72
-56 -87 -33 -11 -46 -10 -81 2 -22 9 -43 21 -45 27 -4 14 34 16 43 2 10 -16
72 -12 90 6 19 19 16 54 -5 65 -8 4 -36 15 -61 24 -57 21 -72 47 -51 91 11 25
38 45 71 53 3 1 19 -4 37 -11z m-1808 -41 c27 -27 32 -38 32 -79 0 -94 -52
-145 -139 -135 -64 7 -101 51 -101 120 0 26 7 62 16 78 33 64 132 72 192 16z
m262 31 c0 -8 -14 -13 -37 -13 l-38 0 -5 -115 c-3 -67 -9 -115 -15 -115 -6 0
-12 48 -15 115 l-5 115 -30 2 c-61 3 -47 7 45 13 52 3 96 7 98 8 1 1 2 -4 2
-10z m225 1 c6 -1 -21 -5 -60 -8 l-70 -6 0 -45 0 -45 58 -3 c57 -3 81 -21 30
-23 -95 -4 -88 0 -91 -51 l-3 -48 70 0 c43 0 71 -4 71 -10 0 -7 -30 -10 -82
-8 l-83 3 -3 122 c-2 108 -1 122 14 125 19 3 133 1 149 -3z m895 -21 c11 -12
19 -31 20 -40 0 -23 -33 -78 -47 -78 -20 0 -16 -13 17 -56 34 -44 36 -54 15
-54 -8 0 -31 23 -51 50 -29 40 -42 50 -65 50 -32 0 -31 1 -34 -55 -1 -22 -6
-39 -11 -38 -10 3 -18 218 -9 241 4 11 21 13 75 9 58 -4 74 -9 90 -29z m250
18 c0 -10 -12 -12 -49 -8 -66 6 -93 -10 -89 -51 3 -31 4 -32 61 -35 42 -2 57
-7 57 -17 0 -11 -13 -15 -48 -15 -56 0 -72 -12 -72 -56 0 -38 12 -44 86 -44
31 0 54 -4 54 -10 0 -7 -30 -10 -82 -8 l-81 3 -3 120 c-2 85 0 122 9 127 7 4
45 8 85 8 54 0 72 -3 72 -14z m465 4 c6 -2 -10 -6 -35 -9 l-45 -6 -3 -118 c-2
-88 -6 -117 -15 -114 -8 2 -12 36 -14 106 0 56 -4 108 -7 116 -3 9 -19 15 -41
15 -19 0 -35 3 -35 8 0 6 171 8 195 2z m145 -10 c6 -11 8 -20 4 -20 -4 0 0 -8
8 -17 8 -10 21 -34 28 -53 7 -19 17 -39 22 -44 4 -6 8 -18 8 -27 0 -10 4 -19
9 -21 5 -1 13 -16 17 -31 6 -25 4 -28 -12 -25 -10 2 -21 16 -26 36 l-9 33 -66
-3 c-62 -3 -68 -5 -83 -32 -16 -29 -40 -46 -40 -29 0 5 8 27 19 49 24 51 55
119 74 167 18 42 31 47 47 17z m170 -78 c0 -80 2 -88 27 -114 35 -36 76 -37
108 -2 23 25 25 35 25 120 0 79 2 92 15 88 12 -5 15 -25 15 -91 0 -110 -15
-140 -82 -162 -28 -9 -42 -9 -64 1 -62 27 -74 55 -74 167 0 76 2 89 15 85 12
-5 15 -25 15 -92z m431 70 c29 -37 10 -122 -27 -122 -21 0 -17 -12 16 -56 34
-46 37 -54 12 -47 -10 2 -30 25 -45 49 -24 41 -31 45 -60 42 -30 -3 -32 -6
-37 -48 -3 -25 -9 -44 -15 -43 -11 3 -20 216 -10 241 9 24 144 11 166 -16z
m199 -3 c0 -9 10 -32 66 -156 13 -28 24 -57 24 -64 0 -20 -27 9 -34 36 -6 24
-10 25 -80 25 l-73 0 -6 -30 c-4 -18 -13 -30 -22 -30 -19 0 -20 -1 11 67 74
165 85 185 100 172 8 -6 14 -15 14 -20z m-3508 -24 c-1 -21 3 -44 9 -51 12
-15 115 -19 136 -6 7 4 13 29 14 55 1 26 6 47 11 47 4 0 8 -57 8 -127 0 -69
-3 -123 -7 -119 -4 4 -9 26 -10 49 -5 68 -5 68 -85 65 l-73 -3 3 -52 c3 -42 1
-53 -11 -53 -12 0 -15 21 -16 121 -1 95 1 120 11 116 8 -2 12 -18 10 -42z
m1050 -67 l3 -113 63 -3 c34 -2 62 -7 62 -13 0 -6 -29 -9 -72 -7 l-73 3 -3
123 c-2 76 1 122 7 122 6 0 12 -46 13 -112z m2654 90 c11 -13 42 -53 69 -90
68 -93 77 -90 73 22 -2 67 0 90 10 90 9 0 12 -31 12 -120 0 -66 -4 -120 -8
-120 -10 0 -62 56 -62 66 0 4 -8 14 -18 23 -10 9 -30 34 -45 55 -46 68 -57 58
-57 -50 0 -54 -4 -94 -10 -94 -6 0 -9 48 -7 120 2 126 8 138 43 98z m377 15
l-43 -4 0 -115 c0 -95 -3 -114 -15 -114 -12 0 -15 19 -15 114 l0 115 -47 4
c-27 2 -1 3 57 3 58 0 86 -1 63 -3z m-4245 -899 c1 -107 -1 -124 -15 -124 -13
0 -15 9 -11 49 7 71 1 77 -79 73 -37 -2 -71 -7 -75 -10 -4 -4 -8 -29 -10 -57
-2 -29 -7 -48 -13 -45 -10 5 -18 188 -9 228 8 37 24 14 22 -32 0 -24 2 -48 6
-54 4 -8 36 -12 82 -12 l74 0 0 58 c0 59 8 82 20 61 4 -6 8 -66 8 -135z m142
131 c0 -6 3 -7 8 0 11 16 102 14 102 -2 0 -9 -19 -13 -71 -13 l-70 0 3 -47 3
-48 50 -2 c76 -2 77 -2 70 -13 -4 -6 -28 -10 -54 -9 -26 1 -53 -1 -59 -5 -7
-4 -12 -27 -12 -52 l0 -44 76 0 c53 0 75 -3 72 -12 -5 -15 -160 -11 -170 5
-12 19 -7 241 5 249 16 10 47 5 47 -7z m330 3 c0 -4 7 -8 15 -8 8 0 21 -15 30
-34 14 -28 14 -39 4 -58 -16 -29 -35 -48 -48 -48 -18 0 -13 -15 15 -46 33 -38
47 -64 35 -64 -20 0 -41 13 -41 25 0 8 -15 30 -34 49 -33 36 -73 47 -81 24 -4
-13 -13 -63 -14 -85 -1 -7 -5 -13 -11 -13 -6 0 -10 50 -10 129 0 115 2 130 18
134 29 7 122 4 122 -5z m297 -5 c4 -10 -15 -13 -72 -13 l-76 0 3 -47 3 -46 59
-1 c84 -1 88 -24 4 -28 l-63 -3 0 -45 0 -45 80 -5 c103 -7 77 -22 -31 -18
l-79 3 0 105 c0 58 4 117 8 131 8 26 10 27 84 25 51 -1 78 -5 80 -13z m207
-70 c40 -130 35 -121 57 -94 10 13 19 33 19 45 0 13 3 26 7 30 4 4 15 29 23
56 10 31 19 46 26 42 6 -4 25 -47 43 -96 17 -50 33 -91 34 -92 10 -10 27 24
53 104 16 52 34 92 41 92 19 0 17 -10 -22 -127 -42 -123 -52 -146 -67 -141
-13 5 -58 123 -58 150 0 18 -33 42 -44 31 -3 -3 -6 -17 -6 -30 0 -13 -4 -31
-9 -41 -5 -9 -15 -37 -23 -61 -8 -25 -20 -47 -26 -49 -13 -4 -33 37 -53 108
-7 25 -16 49 -21 55 -4 5 -8 19 -8 31 0 13 -4 26 -10 29 -15 9 -12 45 4 45 8
0 24 -33 40 -87z m471 64 c6 -12 26 -58 44 -102 18 -44 40 -92 47 -107 18 -34
18 -38 -6 -38 -12 0 -20 7 -20 18 -1 38 -24 52 -89 52 -60 0 -61 0 -78 -37
-10 -20 -24 -38 -30 -41 -23 -7 -18 9 47 153 10 22 26 59 36 83 20 47 34 53
49 19z m301 13 c35 -14 53 -38 54 -73 0 -33 -26 -77 -46 -77 -15 0 -20 -26 -6
-32 12 -5 52 -65 52 -77 0 -20 -40 8 -60 42 -29 50 -51 68 -79 64 -24 -3 -26
-8 -29 -55 -2 -37 -7 -52 -18 -52 -11 0 -14 24 -14 135 l0 135 59 0 c33 0 72
-5 87 -10z m168 -15 c39 -69 89 -145 93 -141 9 8 44 71 49 89 4 9 10 17 15 17
5 0 9 6 9 13 0 22 39 52 51 40 6 -6 8 -61 7 -139 -3 -107 -6 -129 -18 -129
-12 0 -16 18 -18 93 -1 50 -7 92 -12 92 -5 0 -17 -17 -26 -37 -23 -49 -53 -93
-64 -93 -5 0 -25 29 -45 65 -20 36 -41 65 -45 65 -5 0 -11 -41 -12 -92 -2 -62
-7 -93 -15 -96 -10 -3 -13 29 -13 138 0 126 2 141 16 138 9 -2 22 -12 28 -23z
m494 8 c2 -9 -9 -13 -37 -13 -28 0 -44 -5 -47 -15 -3 -8 -7 -60 -7 -116 -2
-70 -6 -104 -14 -106 -9 -3 -13 26 -15 114 l-3 118 -47 3 c-46 3 -57 10 -41
26 13 12 206 2 211 -11z m84 -40 l3 -58 78 -3 77 -3 0 61 c0 46 3 60 14 60 12
0 15 -24 18 -127 2 -71 -1 -134 -6 -140 -16 -23 -26 -2 -26 53 l0 54 -42 1
c-24 0 -55 2 -70 4 -30 4 -50 -14 -48 -42 5 -45 -1 -73 -15 -73 -13 0 -15 22
-15 135 0 111 3 135 15 135 10 0 15 -15 17 -57z m406 -35 c16 -54 35 -94 43
-96 10 -2 23 27 44 92 22 69 33 93 42 88 7 -5 26 -45 42 -91 15 -46 34 -87 41
-91 14 -8 18 1 60 138 14 43 26 59 37 48 6 -6 -31 -135 -48 -168 -5 -10 -9
-25 -9 -33 0 -9 -7 -29 -15 -45 -17 -32 -45 -32 -45 0 0 11 -4 22 -10 25 -5 3
-10 15 -10 26 0 10 -4 27 -9 37 -6 9 -12 30 -16 45 -8 39 -39 33 -43 -8 -2
-17 -8 -34 -13 -39 -5 -6 -9 -20 -9 -32 0 -13 -4 -26 -10 -29 -5 -3 -10 -14
-10 -25 0 -10 -7 -20 -15 -24 -16 -6 -30 21 -54 104 -7 25 -17 53 -22 62 -5
10 -9 27 -9 37 0 11 -4 23 -10 26 -15 9 -12 45 4 45 9 0 25 -33 44 -92z m550
75 c3 -10 -16 -13 -72 -13 l-76 0 0 -45 0 -45 43 -1 c68 -2 77 -3 77 -14 0 -5
-26 -12 -57 -15 l-58 -5 -3 -47 -3 -48 82 0 c72 0 80 -2 69 -15 -10 -12 -28
-14 -84 -10 -39 2 -77 5 -83 5 -10 0 -13 33 -13 128 0 71 3 132 7 136 13 12
166 2 171 -11z m104 -105 l3 -123 63 -3 c90 -4 76 -22 -18 -22 l-80 0 0 135
c0 112 2 135 15 135 12 0 15 -23 17 -122z m363 96 c29 -25 29 -25 5 -19 -81
23 -147 12 -157 -25 -3 -11 -9 -20 -14 -20 -5 0 -9 -20 -9 -44 0 -35 6 -50 33
-80 38 -41 77 -47 128 -20 29 14 31 14 27 -2 -2 -10 -21 -24 -44 -32 -38 -14
-45 -14 -80 3 -72 33 -102 89 -84 156 26 97 128 140 195 83z m245 16 c0 -5 7
-10 16 -10 25 0 62 -49 69 -92 28 -166 -190 -227 -254 -70 -24 58 14 140 77
168 33 15 92 18 92 4z m210 -38 c0 -11 -7 -25 -15 -32 -13 -11 -14 -10 -9 6 5
13 4 16 -4 9 -6 -5 -12 -21 -15 -35 -2 -14 -5 -2 -6 26 -1 56 13 81 35 59 8
-7 14 -22 14 -33z m422 32 c24 4 38 2 38 -5 0 -6 -22 -10 -58 -8 -32 1 -63 -1
-69 -4 -13 -8 -10 -74 3 -87 5 -5 36 -11 69 -13 l60 -3 -61 -2 c-72 -2 -87
-14 -82 -69 l3 -38 80 -5 c44 -3 76 -7 70 -11 -9 -5 -37 -5 -132 0 l-33 1 0
129 0 129 37 -10 c20 -5 54 -7 75 -4z m208 1 c-7 -8 -22 -15 -34 -15 -24 0
-56 -42 -37 -48 6 -2 11 -9 11 -17 0 -12 27 -26 76 -40 30 -8 60 -36 66 -63
15 -55 -75 -91 -146 -57 -19 9 -33 21 -30 27 3 5 13 3 23 -6 11 -10 36 -16 68
-16 48 0 52 2 61 30 10 26 8 32 -14 49 -14 11 -38 22 -54 26 -37 8 -80 48 -80
75 0 33 45 67 89 69 11 1 11 -2 1 -14z m-5610 -46 c0 -15 5 -31 10 -34 6 -3
10 -17 10 -31 0 -14 5 -34 10 -45 6 -10 7 -19 2 -19 -5 0 -17 27 -27 60 -10
34 -22 63 -27 66 -5 3 -4 12 3 20 8 10 8 14 0 14 -6 0 -11 5 -11 11 0 8 5 8
15 -1 8 -7 15 -25 15 -41z m170 10 c0 -10 5 -21 10 -24 6 -3 10 -23 9 -43 l0
-37 -21 53 c-19 47 -22 50 -34 35 -7 -10 -16 -32 -19 -48 -23 -114 -67 -181
-72 -110 -1 17 0 24 3 18 14 -32 36 4 60 97 20 78 34 102 51 89 7 -6 13 -20
13 -30z m142 -13 c-5 -11 -22 -59 -37 -106 -32 -98 -40 -111 -50 -79 -4 13
-11 26 -15 29 -12 9 -21 60 -10 60 5 0 10 -8 10 -17 0 -10 6 -25 13 -34 11
-14 16 -6 37 60 37 115 53 150 58 127 2 -10 0 -28 -6 -40z m4876 -78 l-2 -133
-3 118 c-2 64 -6 117 -10 117 -3 0 -12 -8 -19 -17 -7 -10 -14 -13 -14 -7 0 10
36 54 45 54 3 0 4 -60 3 -132z m482 112 c0 -4 -12 -5 -26 -2 -17 3 -22 7 -13
12 13 9 39 2 39 -10z m-668 -55 c3 -14 1 -25 -3 -25 -5 0 -9 11 -9 25 0 14 2
25 4 25 2 0 6 -11 8 -25z m128 -7 c0 -7 -15 -40 -34 -72 l-34 -60 -21 42 c-24
46 -29 82 -5 40 21 -39 36 -35 64 17 26 48 30 52 30 33z m-180 -103 c0 -38 -4
-65 -10 -65 -7 0 -10 26 -9 65 1 36 6 65 10 65 5 0 9 -29 9 -65z m-3445 -312
c38 -5 57 -15 87 -45 49 -49 52 -100 11 -158 -32 -44 -69 -60 -141 -60 l-51 0
-3 108 c-2 59 -2 119 0 135 4 30 13 32 97 20z m470 -3 c7 -11 -5 -13 -84 -14
-63 -1 -77 -15 -67 -69 l7 -37 60 0 c38 0 58 -4 54 -10 -3 -5 -31 -10 -61 -10
-59 0 -58 2 -54 -72 1 -28 -3 -48 -9 -48 -9 0 -21 256 -12 266 9 9 160 3 166
-6z m515 -19 c0 -10 3 -21 7 -25 4 -3 21 -41 39 -84 17 -42 36 -77 40 -76 5 0
20 23 33 50 13 27 27 57 32 66 5 10 9 24 9 32 0 27 26 65 39 56 9 -5 10 -10 2
-14 -6 -4 -11 -16 -11 -27 0 -10 -4 -19 -10 -19 -5 0 -10 -9 -10 -20 0 -11 -4
-28 -9 -38 -5 -9 -13 -28 -19 -42 -29 -72 -44 -100 -53 -100 -9 0 -17 15 -48
95 -9 24 -50 114 -62 137 -13 26 -11 38 6 32 8 -4 15 -14 15 -23z m442 7 c17
-11 39 -41 50 -66 18 -40 19 -49 7 -84 -7 -21 -28 -52 -46 -69 -28 -24 -42
-29 -86 -29 -76 1 -127 53 -127 130 0 51 13 77 54 112 40 35 104 38 148 6z
m277 7 c49 -25 57 -87 16 -125 -31 -29 -31 -33 -1 -73 37 -51 39 -57 18 -57
-12 0 -26 12 -35 33 -24 50 -54 77 -86 77 -33 0 -41 -14 -41 -72 0 -27 -4 -38
-12 -36 -17 6 -20 249 -4 260 19 13 116 9 145 -7z m366 -5 c18 -20 17 -20 -8
-20 -14 0 -29 5 -32 10 -17 28 -95 -5 -95 -40 0 -20 66 -60 99 -60 49 -1 78
-78 44 -117 -27 -30 -121 -36 -157 -8 -28 21 -11 36 22 19 53 -27 116 -12 124
31 4 22 -53 65 -87 65 -25 0 -75 45 -75 66 0 8 12 28 27 44 22 25 34 30 73 30
34 0 52 -5 65 -20z m422 -117 c-1 -91 -6 -127 -14 -130 -10 -4 -13 26 -13 125
0 71 3 132 6 135 18 17 23 -14 21 -130z m557 131 c33 -13 2 -24 -65 -24 l-69
0 0 -44 c0 -51 7 -55 83 -58 52 -1 52 -1 -13 -7 l-65 -6 -3 -44 c-2 -24 1 -48
7 -54 6 -6 42 -9 81 -8 44 2 70 -2 70 -8 0 -7 -33 -11 -90 -11 l-90 0 0 129 0
130 28 4 c45 7 109 7 126 1z m220 -4 c14 -5 26 -15 26 -21 0 -7 -7 -8 -17 -4
-47 19 -91 17 -112 -4 -28 -28 -12 -63 37 -80 85 -29 102 -43 102 -83 0 -48
-28 -68 -93 -68 -34 0 -54 6 -69 20 -26 24 -14 26 36 5 44 -19 82 -11 103 21
14 22 14 26 -1 48 -11 18 -29 27 -63 32 -49 7 -93 40 -93 70 0 9 13 29 29 45
31 31 68 37 115 19z m-3848 -16 c-3 -9 -6 -21 -6 -26 0 -19 -14 1 -15 22 -1
11 5 20 13 20 9 0 12 -6 8 -16z m211 -11 c10 -15 29 -39 43 -53 14 -15 36 -41
50 -60 36 -48 50 -61 60 -55 5 3 8 48 6 100 -2 52 0 95 5 95 5 0 9 -60 8 -132
0 -73 -3 -127 -6 -120 -2 6 -10 12 -16 12 -7 0 -19 11 -27 24 -34 54 -122 166
-131 166 -5 0 -9 -47 -9 -105 0 -69 -4 -105 -11 -105 -7 0 -9 37 -6 119 3 78
1 123 -6 130 -8 8 -6 11 6 11 9 0 25 -12 34 -27z m923 -77 c0 -57 3 -111 6
-120 5 -12 21 -16 65 -16 33 0 59 -4 59 -10 0 -6 -32 -10 -75 -10 l-75 0 0
130 c0 80 4 130 10 130 6 0 10 -41 10 -104z m310 94 c0 -5 12 -35 26 -67 14
-32 33 -74 41 -93 8 -19 19 -43 24 -52 13 -25 11 -38 -6 -38 -8 0 -15 8 -15
18 0 10 -9 28 -20 39 -16 17 -29 21 -77 19 -52 -2 -59 -5 -75 -32 -10 -16 -20
-33 -22 -39 -2 -5 -7 -7 -11 -2 -5 4 -3 19 5 35 7 15 17 37 21 50 48 125 73
172 92 172 9 0 17 -4 17 -10z m1322 -42 l3 -53 73 -5 c40 -3 77 -1 82 4 5 5 6
31 3 57 -5 40 -3 49 10 49 13 0 16 -16 19 -92 2 -51 2 -110 0 -131 -5 -59 -26
-39 -32 29 l-5 59 -75 0 -75 0 -2 -58 c-1 -32 -4 -61 -7 -64 -16 -17 -24 21
-25 132 -1 103 2 125 13 125 11 0 16 -15 18 -52z m447 25 c12 -16 25 -33 31
-40 5 -7 10 -15 10 -19 0 -4 8 -14 18 -23 9 -9 30 -33 45 -53 28 -38 49 -49
46 -25 -6 44 3 187 11 187 12 0 13 -215 1 -243 -6 -16 -14 -10 -54 40 -27 32
-55 66 -63 76 -7 9 -14 20 -14 23 0 12 -43 44 -51 38 -5 -3 -9 -48 -9 -100 0
-56 -4 -94 -10 -94 -6 0 -10 35 -10 84 0 46 -3 104 -6 130 -6 42 -5 46 14 46
11 0 30 -12 41 -27z m-3189 -19 c0 -14 4 -25 29 -71 7 -14 7 -23 1 -23 -10 0
-32 46 -44 93 -4 19 -3 26 4 22 5 -3 10 -13 10 -21z m-69 -51 c-8 -15 -10 -15
-11 -2 0 17 10 32 18 25 2 -3 -1 -13 -7 -23z m-25 -42 c-9 -14 17 -29 59 -34
25 -3 20 -4 -14 -2 l-53 2 -19 -45 c-11 -25 -22 -42 -26 -38 -3 3 -2 16 4 29
6 12 18 39 27 60 10 20 19 37 22 37 3 0 3 -4 0 -9z m134 -26 c0 -8 5 -15 10
-15 6 0 10 -5 10 -12 0 -6 -9 -3 -20 7 -22 20 -26 35 -10 35 6 0 10 -7 10 -15z
m40 -75 c0 -5 -5 -10 -11 -10 -5 0 -7 5 -4 10 3 6 8 10 11 10 2 0 4 -4 4 -10z"/>
<path d="M5666 4158 c-15 -8 -22 -363 -7 -372 35 -22 209 -7 232 20 6 8 17 14
24 14 21 0 65 103 65 152 -1 78 -48 152 -115 179 -32 13 -179 18 -199 7z"/>
<path d="M6732 4150 c0 -14 2 -19 5 -12 2 6 2 18 0 25 -3 6 -5 1 -5 -13z"/>
<path d="M6801 3984 c0 -11 3 -14 6 -6 3 7 2 16 -1 19 -3 4 -6 -2 -5 -13z"/>
<path d="M6820 3970 c0 -11 2 -20 4 -20 2 0 6 9 9 20 3 11 1 20 -4 20 -5 0 -9
-9 -9 -20z"/>
<path d="M6601 3894 c0 -11 3 -14 6 -6 3 7 2 16 -1 19 -3 4 -6 -2 -5 -13z"/>
<path d="M6698 3653 c12 -2 32 -2 45 0 12 2 2 4 -23 4 -25 0 -35 -2 -22 -4z"/>
<path d="M7070 3384 c0 -8 5 -12 10 -9 6 4 8 11 5 16 -9 14 -15 11 -15 -7z"/>
<path d="M7006 3371 c-4 -7 -5 -15 -2 -18 9 -9 19 4 14 18 -4 11 -6 11 -12 0z"/>
<path d="M7030 3364 c0 -8 5 -12 10 -9 6 4 8 11 5 16 -9 14 -15 11 -15 -7z"/>
<path d="M1426 3852 c-3 -5 1 -9 9 -9 8 0 15 4 15 9 0 4 -4 8 -9 8 -6 0 -12
-4 -15 -8z"/>
<path d="M1450 3810 c19 -13 30 -13 30 0 0 6 -10 10 -22 10 -19 0 -20 -2 -8
-10z"/>
<path d="M1518 3313 c7 -3 16 -2 19 1 4 3 -2 6 -13 5 -11 0 -14 -3 -6 -6z"/>
<path d="M1334 3426 c-3 -8 -4 -25 -2 -38 3 -17 5 -13 9 15 5 38 2 47 -7 23z"/>
<path d="M3622 2888 c-30 -30 0 -78 38 -58 15 8 20 19 17 38 -4 30 -34 41 -55
20z"/>
<path d="M3588 2745 c-9 -21 -8 -28 7 -45 22 -24 63 -26 84 -3 15 16 14 19
-11 45 -34 35 -65 36 -80 3z"/>
<path d="M2575 2890 c3 -5 -1 -10 -9 -10 -24 0 -46 -41 -46 -88 0 -45 23 -92
46 -92 8 0 14 -4 14 -10 0 -14 53 -13 84 1 34 16 60 72 52 117 -3 19 -18 48
-32 64 -22 22 -36 28 -71 28 -27 0 -42 -4 -38 -10z"/>
<path d="M3947 2893 c-4 -3 -7 -26 -7 -50 0 -48 10 -56 66 -56 66 0 99 65 49
97 -24 16 -96 22 -108 9z"/>
<path d="M4915 2850 c-4 -16 -11 -32 -16 -35 -5 -4 -9 -17 -9 -31 0 -22 4 -24
45 -24 25 0 45 5 45 10 0 11 -50 110 -55 110 -2 0 -6 -13 -10 -30z"/>
<path d="M5417 2893 c-4 -3 -7 -28 -7 -55 0 -52 0 -52 70 -48 19 1 41 6 48 12
18 15 15 62 -6 81 -18 17 -92 24 -105 10z"/>
<path d="M5702 2828 c-25 -67 -20 -79 30 -76 37 2 39 4 35 28 -9 40 -31 100
-39 100 -4 0 -15 -24 -26 -52z"/>
<path d="M2437 2113 c-6 -11 0 -93 7 -101 10 -9 59 -9 89 1 38 13 51 40 35 75
-12 24 -19 27 -70 30 -31 2 -58 -1 -61 -5z"/>
<path d="M3502 2083 c-13 -5 -42 -66 -42 -89 0 -10 13 -14 39 -14 45 0 58 12
43 43 -5 12 -14 32 -18 43 -5 12 -15 19 -22 17z"/>
<path d="M3717 2113 c-4 -3 -7 -28 -7 -55 l0 -48 55 0 c46 0 57 4 70 24 18 27
7 69 -20 80 -22 8 -90 8 -98 -1z"/>
<path d="M6165 2120 c-39 -7 -75 -60 -75 -111 0 -29 8 -46 34 -73 45 -48 98
-50 146 -6 31 28 32 34 28 85 -7 85 -51 120 -133 105z"/>
<path d="M2906 1614 c-3 -9 -6 -60 -6 -114 0 -111 2 -114 71 -99 92 21 131
104 83 177 -29 44 -135 70 -148 36z"/>
<path d="M4277 1613 c-52 -27 -71 -97 -42 -153 30 -58 90 -76 145 -43 69 40
68 150 -2 193 -38 23 -62 24 -101 3z"/>
<path d="M4566 1615 c-20 -21 -21 -79 -1 -95 10 -8 32 -10 67 -6 29 3 54 6 56
6 1 0 2 20 2 45 0 43 -1 44 -37 50 -21 4 -45 9 -54 11 -9 3 -24 -3 -33 -11z"/>
<path d="M3794 1564 c-3 -19 -10 -37 -15 -40 -5 -3 -9 -14 -9 -25 0 -16 7 -19
50 -19 28 0 50 3 50 6 0 4 -8 28 -17 55 -22 61 -50 72 -59 23z"/>
</g>
</svg>
